<?xml version="1.0" standalone="no"?><svg xmlns="http://www.w3.org/2000/svg" viewBox="0 0 1440 320"><path fill="#00abf0" fill-opacity="1" d="M0,96L24,90.7C48,85,96,75,144,106.7C192,139,240,213,288,256C336,299,384,309,432,277.3C480,245,528,171,576,160C624,149,672,203,720,229.3C768,256,816,256,864,213.3C912,171,960,85,1008,69.3C1056,53,1104,107,1152,154.7C1200,203,1248,245,1296,234.7C1344,224,1392,160,1416,128L1440,96L1440,320L1416,320C1392,320,1344,320,1296,320C1248,320,1200,320,1152,320C1104,320,1056,320,1008,320C960,320,912,320,864,320C816,320,768,320,720,320C672,320,624,320,576,320C528,320,480,320,432,320C384,320,336,320,288,320C240,320,192,320,144,320C96,320,48,320,24,320L0,320Z"></path></svg>